<svg width="310" height="81" viewBox="0 0 310 81" fill="none" xmlns="http://www.w3.org/2000/svg">
<g filter="url(#filter0_d)">
<path d="M77.2499 13.5L85.8333 23.625H72.9583L64.3749 13.5H55.7916L64.3749 23.625H51.4999L42.9166 13.5H34.3333L42.9166 23.625H30.0416L21.4583 13.5H17.1666C12.4458 13.5 8.62617 16.5375 8.62617 20.25L8.58325 60.75C8.58325 64.4625 12.4458 67.5 17.1666 67.5H85.8333C90.5541 67.5 94.4166 64.4625 94.4166 60.75V13.5H77.2499ZM48.2812 51.4687L42.9166 60.75L37.552 51.4687L25.7499 47.25L37.552 43.0312L42.9166 33.75L48.2812 43.0312L60.0833 47.25L48.2812 51.4687ZM72.7008 40.2975L68.6666 47.25L64.6324 40.2975L55.7916 37.125L64.6324 33.9525L68.6666 27L72.7008 33.9525L81.5416 37.125L72.7008 40.2975Z" fill="url(#paint0_linear)"/>
</g>
<g filter="url(#filter1_d)">
<path d="M128.097 54.432C125.529 54.432 123.201 53.88 121.113 52.776C119.049 51.648 117.417 50.1 116.217 48.132C115.041 46.14 114.453 43.896 114.453 41.4C114.453 38.904 115.041 36.672 116.217 34.704C117.417 32.712 119.049 31.164 121.113 30.06C123.201 28.932 125.541 28.368 128.133 28.368C130.317 28.368 132.285 28.752 134.037 29.52C135.813 30.288 137.301 31.392 138.501 32.832L134.757 36.288C133.053 34.32 130.941 33.336 128.421 33.336C126.861 33.336 125.469 33.684 124.245 34.38C123.021 35.052 122.061 36 121.365 37.224C120.693 38.448 120.357 39.84 120.357 41.4C120.357 42.96 120.693 44.352 121.365 45.576C122.061 46.8 123.021 47.76 124.245 48.456C125.469 49.128 126.861 49.464 128.421 49.464C130.941 49.464 133.053 48.468 134.757 46.476L138.501 49.932C137.301 51.396 135.813 52.512 134.037 53.28C132.261 54.048 130.281 54.432 128.097 54.432ZM142.043 34.632H147.659V54H142.043V34.632ZM144.851 31.932C143.819 31.932 142.979 31.632 142.331 31.032C141.683 30.432 141.359 29.688 141.359 28.8C141.359 27.912 141.683 27.168 142.331 26.568C142.979 25.968 143.819 25.668 144.851 25.668C145.883 25.668 146.723 25.956 147.371 26.532C148.019 27.108 148.343 27.828 148.343 28.692C148.343 29.628 148.019 30.408 147.371 31.032C146.723 31.632 145.883 31.932 144.851 31.932ZM164.643 34.344C167.043 34.344 168.975 35.064 170.439 36.504C171.927 37.944 172.671 40.08 172.671 42.912V54H167.055V43.776C167.055 42.24 166.719 41.1 166.047 40.356C165.375 39.588 164.403 39.204 163.131 39.204C161.715 39.204 160.587 39.648 159.747 40.536C158.907 41.4 158.487 42.696 158.487 44.424V54H152.871V34.632H158.235V36.9C158.979 36.084 159.903 35.46 161.007 35.028C162.111 34.572 163.323 34.344 164.643 34.344ZM196.945 44.388C196.945 44.46 196.909 44.964 196.837 45.9H182.185C182.449 47.1 183.073 48.048 184.057 48.744C185.041 49.44 186.265 49.788 187.729 49.788C188.737 49.788 189.625 49.644 190.393 49.356C191.185 49.044 191.917 48.564 192.589 47.916L195.577 51.156C193.753 53.244 191.089 54.288 187.585 54.288C185.401 54.288 183.469 53.868 181.789 53.028C180.109 52.164 178.813 50.976 177.901 49.464C176.989 47.952 176.533 46.236 176.533 44.316C176.533 42.42 176.977 40.716 177.865 39.204C178.777 37.668 180.013 36.48 181.573 35.64C183.157 34.776 184.921 34.344 186.865 34.344C188.761 34.344 190.477 34.752 192.013 35.568C193.549 36.384 194.749 37.56 195.613 39.096C196.501 40.608 196.945 42.372 196.945 44.388ZM186.901 38.592C185.629 38.592 184.561 38.952 183.697 39.672C182.833 40.392 182.305 41.376 182.113 42.624H191.653C191.461 41.4 190.933 40.428 190.069 39.708C189.205 38.964 188.149 38.592 186.901 38.592ZM225.488 34.344C227.912 34.344 229.832 35.064 231.248 36.504C232.688 37.92 233.408 40.056 233.408 42.912V54H227.792V43.776C227.792 42.24 227.468 41.1 226.82 40.356C226.196 39.588 225.296 39.204 224.12 39.204C222.8 39.204 221.756 39.636 220.988 40.5C220.22 41.34 219.836 42.6 219.836 44.28V54H214.22V43.776C214.22 40.728 212.996 39.204 210.548 39.204C209.252 39.204 208.22 39.636 207.452 40.5C206.684 41.34 206.3 42.6 206.3 44.28V54H200.684V34.632H206.048V36.864C206.768 36.048 207.644 35.424 208.676 34.992C209.732 34.56 210.884 34.344 212.132 34.344C213.5 34.344 214.736 34.62 215.84 35.172C216.944 35.7 217.832 36.48 218.504 37.512C219.296 36.504 220.292 35.724 221.492 35.172C222.716 34.62 224.048 34.344 225.488 34.344ZM246.254 34.344C249.254 34.344 251.558 35.064 253.166 36.504C254.774 37.92 255.578 40.068 255.578 42.948V54H250.322V51.588C249.266 53.388 247.298 54.288 244.418 54.288C242.93 54.288 241.634 54.036 240.53 53.532C239.45 53.028 238.622 52.332 238.046 51.444C237.47 50.556 237.182 49.548 237.182 48.42C237.182 46.62 237.854 45.204 239.198 44.172C240.566 43.14 242.666 42.624 245.498 42.624H249.962C249.962 41.4 249.59 40.464 248.846 39.816C248.102 39.144 246.986 38.808 245.498 38.808C244.466 38.808 243.446 38.976 242.438 39.312C241.454 39.624 240.614 40.056 239.918 40.608L237.902 36.684C238.958 35.94 240.218 35.364 241.682 34.956C243.17 34.548 244.694 34.344 246.254 34.344ZM245.822 50.508C246.782 50.508 247.634 50.292 248.378 49.86C249.122 49.404 249.65 48.744 249.962 47.88V45.9H246.11C243.806 45.9 242.654 46.656 242.654 48.168C242.654 48.888 242.93 49.464 243.482 49.896C244.058 50.304 244.838 50.508 245.822 50.508ZM273.152 53.064C272.6 53.472 271.916 53.784 271.1 54C270.308 54.192 269.468 54.288 268.58 54.288C266.276 54.288 264.488 53.7 263.216 52.524C261.968 51.348 261.344 49.62 261.344 47.34V39.384H258.356V35.064H261.344V30.348H266.96V35.064H271.784V39.384H266.96V47.268C266.96 48.084 267.164 48.72 267.572 49.176C268.004 49.608 268.604 49.824 269.372 49.824C270.26 49.824 271.016 49.584 271.64 49.104L273.152 53.064ZM276.305 34.632H281.921V54H276.305V34.632ZM279.113 31.932C278.081 31.932 277.241 31.632 276.593 31.032C275.945 30.432 275.621 29.688 275.621 28.8C275.621 27.912 275.945 27.168 276.593 26.568C277.241 25.968 278.081 25.668 279.113 25.668C280.145 25.668 280.985 25.956 281.633 26.532C282.281 27.108 282.605 27.828 282.605 28.692C282.605 29.628 282.281 30.408 281.633 31.032C280.985 31.632 280.145 31.932 279.113 31.932ZM299.445 54L295.197 48.06L290.805 54H284.685L292.137 44.244L284.937 34.632H291.237L295.341 40.284L299.553 34.632H305.529L298.329 44.1L305.817 54H299.445Z" fill="url(#paint1_linear)"/>
</g>
<defs>
<filter id="filter0_d" x="-4" y="0" width="111" height="89" filterUnits="userSpaceOnUse" color-interpolation-filters="sRGB">
<feFlood flood-opacity="0" result="BackgroundImageFix"/>
<feColorMatrix in="SourceAlpha" type="matrix" values="0 0 0 0 0 0 0 0 0 0 0 0 0 0 0 0 0 0 127 0"/>
<feOffset dy="4"/>
<feGaussianBlur stdDeviation="2"/>
<feColorMatrix type="matrix" values="0 0 0 0 0 0 0 0 0 0 0 0 0 0 0 0 0 0 0.25 0"/>
<feBlend mode="normal" in2="BackgroundImageFix" result="effect1_dropShadow"/>
<feBlend mode="normal" in="SourceGraphic" in2="effect1_dropShadow" result="shape"/>
</filter>
<filter id="filter1_d" x="110.453" y="25.668" width="199.364" height="36.764" filterUnits="userSpaceOnUse" color-interpolation-filters="sRGB">
<feFlood flood-opacity="0" result="BackgroundImageFix"/>
<feColorMatrix in="SourceAlpha" type="matrix" values="0 0 0 0 0 0 0 0 0 0 0 0 0 0 0 0 0 0 127 0"/>
<feOffset dy="4"/>
<feGaussianBlur stdDeviation="2"/>
<feColorMatrix type="matrix" values="0 0 0 0 0 0 0 0 0 0 0 0 0 0 0 0 0 0 0.25 0"/>
<feBlend mode="normal" in2="BackgroundImageFix" result="effect1_dropShadow"/>
<feBlend mode="normal" in="SourceGraphic" in2="effect1_dropShadow" result="shape"/>
</filter>
<linearGradient id="paint0_linear" x1="51.4999" y1="13.5" x2="51.4999" y2="67.5" gradientUnits="userSpaceOnUse">
<stop stop-color="#D30000"/>
<stop offset="0.635417" stop-color="#E21760"/>
<stop offset="1" stop-color="#3E071B" stop-opacity="0.93"/>
</linearGradient>
<linearGradient id="paint1_linear" x1="112.611" y1="50" x2="311.579" y2="50" gradientUnits="userSpaceOnUse">
<stop stop-color="#FF6F00"/>
<stop offset="0.510393" stop-color="#FF0000" stop-opacity="0.85"/>
<stop offset="1" stop-color="#870D2B" stop-opacity="0.85"/>
</linearGradient>
</defs>
</svg>
