<svg width="287" height="60" viewBox="0 0 287 60" fill="none" xmlns="http://www.w3.org/2000/svg">
<g filter="url(#filter0_d)">
<path d="M54.75 10L60.8333 17.5H51.7083L45.625 10H39.5417L45.625 17.5H36.5L30.4167 10H24.3333L30.4167 17.5H21.2917L15.2083 10H12.1667C8.82084 10 6.11375 12.25 6.11375 15L6.08334 45C6.08334 47.75 8.82084 50 12.1667 50H60.8333C64.1792 50 66.9167 47.75 66.9167 45V10H54.75ZM34.2188 38.125L30.4167 45L26.6146 38.125L18.25 35L26.6146 31.875L30.4167 25L34.2188 31.875L42.5833 35L34.2188 38.125ZM51.5258 29.85L48.6667 35L45.8075 29.85L39.5417 27.5L45.8075 25.15L48.6667 20L51.5258 25.15L57.7917 27.5L51.5258 29.85Z" fill="#D30000"/>
</g>
<g filter="url(#filter1_d)">
<path d="M105.097 43.432C102.529 43.432 100.201 42.88 98.1128 41.776C96.0488 40.648 94.4168 39.1 93.2168 37.132C92.0408 35.14 91.4528 32.896 91.4528 30.4C91.4528 27.904 92.0408 25.672 93.2168 23.704C94.4168 21.712 96.0488 20.164 98.1128 19.06C100.201 17.932 102.541 17.368 105.133 17.368C107.317 17.368 109.285 17.752 111.037 18.52C112.813 19.288 114.301 20.392 115.501 21.832L111.757 25.288C110.053 23.32 107.941 22.336 105.421 22.336C103.861 22.336 102.469 22.684 101.245 23.38C100.021 24.052 99.0608 25 98.3648 26.224C97.6928 27.448 97.3568 28.84 97.3568 30.4C97.3568 31.96 97.6928 33.352 98.3648 34.576C99.0608 35.8 100.021 36.76 101.245 37.456C102.469 38.128 103.861 38.464 105.421 38.464C107.941 38.464 110.053 37.468 111.757 35.476L115.501 38.932C114.301 40.396 112.813 41.512 111.037 42.28C109.261 43.048 107.281 43.432 105.097 43.432ZM119.043 23.632H124.659V43H119.043V23.632ZM121.851 20.932C120.819 20.932 119.979 20.632 119.331 20.032C118.683 19.432 118.359 18.688 118.359 17.8C118.359 16.912 118.683 16.168 119.331 15.568C119.979 14.968 120.819 14.668 121.851 14.668C122.883 14.668 123.723 14.956 124.371 15.532C125.019 16.108 125.343 16.828 125.343 17.692C125.343 18.628 125.019 19.408 124.371 20.032C123.723 20.632 122.883 20.932 121.851 20.932ZM141.643 23.344C144.043 23.344 145.975 24.064 147.439 25.504C148.927 26.944 149.671 29.08 149.671 31.912V43H144.055V32.776C144.055 31.24 143.719 30.1 143.047 29.356C142.375 28.588 141.403 28.204 140.131 28.204C138.715 28.204 137.587 28.648 136.747 29.536C135.907 30.4 135.487 31.696 135.487 33.424V43H129.871V23.632H135.235V25.9C135.979 25.084 136.903 24.46 138.007 24.028C139.111 23.572 140.323 23.344 141.643 23.344ZM173.945 33.388C173.945 33.46 173.909 33.964 173.837 34.9H159.185C159.449 36.1 160.073 37.048 161.057 37.744C162.041 38.44 163.265 38.788 164.729 38.788C165.737 38.788 166.625 38.644 167.393 38.356C168.185 38.044 168.917 37.564 169.589 36.916L172.577 40.156C170.753 42.244 168.089 43.288 164.585 43.288C162.401 43.288 160.469 42.868 158.789 42.028C157.109 41.164 155.813 39.976 154.901 38.464C153.989 36.952 153.533 35.236 153.533 33.316C153.533 31.42 153.977 29.716 154.865 28.204C155.777 26.668 157.013 25.48 158.573 24.64C160.157 23.776 161.921 23.344 163.865 23.344C165.761 23.344 167.477 23.752 169.013 24.568C170.549 25.384 171.749 26.56 172.613 28.096C173.501 29.608 173.945 31.372 173.945 33.388ZM163.901 27.592C162.629 27.592 161.561 27.952 160.697 28.672C159.833 29.392 159.305 30.376 159.113 31.624H168.653C168.461 30.4 167.933 29.428 167.069 28.708C166.205 27.964 165.149 27.592 163.901 27.592ZM202.488 23.344C204.912 23.344 206.832 24.064 208.248 25.504C209.688 26.92 210.408 29.056 210.408 31.912V43H204.792V32.776C204.792 31.24 204.468 30.1 203.82 29.356C203.196 28.588 202.296 28.204 201.12 28.204C199.8 28.204 198.756 28.636 197.988 29.5C197.22 30.34 196.836 31.6 196.836 33.28V43H191.22V32.776C191.22 29.728 189.996 28.204 187.548 28.204C186.252 28.204 185.22 28.636 184.452 29.5C183.684 30.34 183.3 31.6 183.3 33.28V43H177.684V23.632H183.048V25.864C183.768 25.048 184.644 24.424 185.676 23.992C186.732 23.56 187.884 23.344 189.132 23.344C190.5 23.344 191.736 23.62 192.84 24.172C193.944 24.7 194.832 25.48 195.504 26.512C196.296 25.504 197.292 24.724 198.492 24.172C199.716 23.62 201.048 23.344 202.488 23.344ZM223.254 23.344C226.254 23.344 228.558 24.064 230.166 25.504C231.774 26.92 232.578 29.068 232.578 31.948V43H227.322V40.588C226.266 42.388 224.298 43.288 221.418 43.288C219.93 43.288 218.634 43.036 217.53 42.532C216.45 42.028 215.622 41.332 215.046 40.444C214.47 39.556 214.182 38.548 214.182 37.42C214.182 35.62 214.854 34.204 216.198 33.172C217.566 32.14 219.666 31.624 222.498 31.624H226.962C226.962 30.4 226.59 29.464 225.846 28.816C225.102 28.144 223.986 27.808 222.498 27.808C221.466 27.808 220.446 27.976 219.438 28.312C218.454 28.624 217.614 29.056 216.918 29.608L214.902 25.684C215.958 24.94 217.218 24.364 218.682 23.956C220.17 23.548 221.694 23.344 223.254 23.344ZM222.822 39.508C223.782 39.508 224.634 39.292 225.378 38.86C226.122 38.404 226.65 37.744 226.962 36.88V34.9H223.11C220.806 34.9 219.654 35.656 219.654 37.168C219.654 37.888 219.93 38.464 220.482 38.896C221.058 39.304 221.838 39.508 222.822 39.508ZM250.152 42.064C249.6 42.472 248.916 42.784 248.1 43C247.308 43.192 246.468 43.288 245.58 43.288C243.276 43.288 241.488 42.7 240.216 41.524C238.968 40.348 238.344 38.62 238.344 36.34V28.384H235.356V24.064H238.344V19.348H243.96V24.064H248.784V28.384H243.96V36.268C243.96 37.084 244.164 37.72 244.572 38.176C245.004 38.608 245.604 38.824 246.372 38.824C247.26 38.824 248.016 38.584 248.64 38.104L250.152 42.064ZM253.305 23.632H258.921V43H253.305V23.632ZM256.113 20.932C255.081 20.932 254.241 20.632 253.593 20.032C252.945 19.432 252.621 18.688 252.621 17.8C252.621 16.912 252.945 16.168 253.593 15.568C254.241 14.968 255.081 14.668 256.113 14.668C257.145 14.668 257.985 14.956 258.633 15.532C259.281 16.108 259.605 16.828 259.605 17.692C259.605 18.628 259.281 19.408 258.633 20.032C257.985 20.632 257.145 20.932 256.113 20.932ZM276.445 43L272.197 37.06L267.805 43H261.685L269.137 33.244L261.937 23.632H268.237L272.341 29.284L276.553 23.632H282.529L275.329 33.1L282.817 43H276.445Z" fill="url(#paint0_linear)"/>
</g>
<defs>
<filter id="filter0_d" x="-4" y="0" width="81" height="68" filterUnits="userSpaceOnUse" color-interpolation-filters="sRGB">
<feFlood flood-opacity="0" result="BackgroundImageFix"/>
<feColorMatrix in="SourceAlpha" type="matrix" values="0 0 0 0 0 0 0 0 0 0 0 0 0 0 0 0 0 0 127 0"/>
<feOffset dy="4"/>
<feGaussianBlur stdDeviation="2"/>
<feColorMatrix type="matrix" values="0 0 0 0 0 0 0 0 0 0 0 0 0 0 0 0 0 0 0.25 0"/>
<feBlend mode="normal" in2="BackgroundImageFix" result="effect1_dropShadow"/>
<feBlend mode="normal" in="SourceGraphic" in2="effect1_dropShadow" result="shape"/>
</filter>
<filter id="filter1_d" x="87.4528" y="14.668" width="199.364" height="36.764" filterUnits="userSpaceOnUse" color-interpolation-filters="sRGB">
<feFlood flood-opacity="0" result="BackgroundImageFix"/>
<feColorMatrix in="SourceAlpha" type="matrix" values="0 0 0 0 0 0 0 0 0 0 0 0 0 0 0 0 0 0 127 0"/>
<feOffset dy="4"/>
<feGaussianBlur stdDeviation="2"/>
<feColorMatrix type="matrix" values="0 0 0 0 0 0 0 0 0 0 0 0 0 0 0 0 0 0 0.25 0"/>
<feBlend mode="normal" in2="BackgroundImageFix" result="effect1_dropShadow"/>
<feBlend mode="normal" in="SourceGraphic" in2="effect1_dropShadow" result="shape"/>
</filter>
<linearGradient id="paint0_linear" x1="108.574" y1="39" x2="268.601" y2="39" gradientUnits="userSpaceOnUse">
<stop stop-color="#FF9900"/>
<stop offset="0.570764" stop-color="#FF0000" stop-opacity="0.85"/>
</linearGradient>
</defs>
</svg>
